<?xml version="1.0" standalone="no"?>
<!DOCTYPE svg PUBLIC "-//W3C//DTD SVG 20010904//EN" "http://www.w3.org/TR/2001/REC-SVG-20010904/DTD/svg10.dtd">
<svg version="1.0" xmlns="http://www.w3.org/2000/svg" width="460.000000pt" height="460.000000pt"
  viewBox="0 0 460.000000 460.000000" preserveAspectRatio="xMidYMid meet">

  <g transform="translate(0.000000,460.000000) scale(0.100000,-0.100000)" fill="#ffffff" stroke="none">
    <path d="M1910 4494 c-103 -21 -200 -49 -257 -76 -216 -99 -358 -270 -413
-498 -19 -80 -17 -281 4 -353 39 -136 111 -238 190 -271 76 -32 197 -13 298
47 26 15 49 27 52 27 3 0 85 52 181 115 96 63 177 115 181 115 3 0 18 8 32 19
38 26 94 58 187 104 66 33 93 41 156 45 44 2 91 0 111 -7 88 -29 187 -177 209
-312 21 -127 -11 -306 -86 -484 -24 -57 123 142 151 205 6 14 20 45 32 70 98
216 96 484 -4 698 -137 291 -355 462 -679 533 -87 20 -293 33 -345 23z" />
    <path d="M2144 3431 c-78 -13 -191 -79 -268 -155 -144 -142 -236 -307 -309
-556 -42 -142 -51 -199 -51 -350 -1 -138 17 -276 34 -265 4 2 15 35 25 72 10
37 36 111 58 163 94 224 203 317 314 271 30 -12 86 -94 97 -142 33 -145 20
-322 -33 -460 -28 -73 -126 -270 -192 -389 -181 -322 -259 -521 -288 -733 -21
-150 -11 -271 35 -408 57 -175 166 -285 354 -359 84 -34 87 -34 250 -34 160
-1 168 0 265 32 167 55 266 113 375 221 102 102 175 224 221 371 19 61 24 98
24 195 0 115 -1 123 -33 190 -55 115 -166 206 -279 228 -33 7 -44 -6 -25 -29
5 -5 20 -40 34 -79 86 -231 55 -418 -86 -513 -41 -27 -57 -32 -108 -32 -94 0
-147 39 -193 143 -41 94 -47 173 -30 385 8 103 19 219 25 257 5 39 14 113 20
165 6 52 20 138 31 190 11 52 26 131 34 175 8 44 34 179 59 300 71 350 89 480
90 650 0 131 -3 159 -24 225 -38 119 -106 202 -206 250 -47 23 -153 33 -220
21z" />
  </g>
</svg>
